<svg width="19" height="17" viewBox="0 0 19 17" fill="none" xmlns="http://www.w3.org/2000/svg">
<path d="M16.0624 9.00047L9.4999 15.5L2.9374 9.00047C2.50454 8.57926 2.16358 8.07298 1.936 7.51353C1.70842 6.95407 1.59914 6.35355 1.61504 5.74979C1.63095 5.14602 1.77169 4.55209 2.02841 4.00539C2.28513 3.45869 2.65227 2.97107 3.1067 2.57323C3.56113 2.17539 4.09301 1.87595 4.66886 1.69377C5.2447 1.51159 5.85203 1.45061 6.4526 1.51467C7.05316 1.57874 7.63396 1.76646 8.15841 2.06601C8.68287 2.36557 9.13962 2.77047 9.4999 3.25522C9.86174 2.77399 10.319 2.37263 10.8431 2.07625C11.3672 1.77987 11.9468 1.59486 12.5457 1.5328C13.1446 1.47074 13.7498 1.53296 14.3236 1.71556C14.8973 1.89817 15.4272 2.19724 15.88 2.59404C16.3328 2.99084 16.6989 3.47685 16.9553 4.02163C17.2116 4.56641 17.3528 5.15824 17.3699 5.76009C17.387 6.36194 17.2798 6.96084 17.0548 7.51932C16.8298 8.07779 16.4919 8.58382 16.0624 9.00572" stroke="black" stroke-width="2" stroke-linecap="round" stroke-linejoin="round"/>
</svg>
