<?xml version="1.0" standalone="no"?>
<!DOCTYPE svg PUBLIC "-//W3C//DTD SVG 20010904//EN"
 "http://www.w3.org/TR/2001/REC-SVG-20010904/DTD/svg10.dtd">
<svg version="1.0" xmlns="http://www.w3.org/2000/svg"
 width="1217.000000pt" height="468.000000pt" viewBox="0 0 1217.000000 468.000000"
 preserveAspectRatio="xMidYMid meet">
<metadata>
Created by potrace 1.16, written by Peter Selinger 2001-2019
</metadata>
<g transform="translate(0.000000,468.000000) scale(0.100000,-0.100000)"
fill="#000000" stroke="none">
<path d="M39 4667 c-9 -7 -21 -22 -27 -34 -16 -28 -17 -2062 -2 -2268 46 -633
193 -1129 455 -1540 285 -447 564 -693 905 -797 95 -29 309 -36 419 -14 399
81 785 407 1100 930 217 361 314 676 350 1135 15 183 15 2492 1 2543 -6 21
-19 42 -30 48 -29 16 -3150 13 -3171 -3z m2531 -152 c0 -32 -2 -35 -30 -35
l-30 0 0 -105 0 -105 -40 0 -40 0 0 105 0 105 -35 0 c-33 0 -35 2 -35 35 l0
35 105 0 105 0 0 -35z m135 -20 c16 -30 33 -55 36 -55 4 0 22 25 39 55 30 52
34 55 71 55 l39 0 0 -140 0 -140 -40 0 -39 0 -3 68 -3 67 -28 -47 c-15 -27
-31 -48 -35 -48 -4 0 -20 24 -37 53 l-30 52 -3 -72 -3 -73 -34 0 -35 0 0 140
0 140 38 0 c35 0 39 -3 67 -55z m-1770 -31 c8 -4 23 -20 31 -36 19 -37 5 -80
-32 -97 -35 -16 -48 -14 -78 10 -19 15 -26 30 -26 55 0 56 50 89 105 68z m235
-279 l0 -285 -65 0 -65 0 0 285 0 285 65 0 65 0 0 -285z m-708 163 l3 -103 75
0 75 0 3 103 3 103 67 -3 67 -3 3 -272 2 -273 -70 0 -70 0 0 105 0 105 -80 0
-80 0 0 -105 0 -105 -70 0 -70 0 0 275 0 275 70 0 69 0 3 -102z m1085 -67 c31
-19 32 -19 69 0 73 37 159 17 201 -48 15 -22 19 -53 21 -180 l4 -153 -66 0
-66 0 0 122 c0 128 -10 158 -51 158 -41 0 -49 -25 -49 -156 l0 -124 -65 0 -65
0 0 119 c0 100 -3 122 -18 141 -15 18 -25 22 -46 16 -37 -9 -46 -40 -46 -167
l0 -109 -65 0 -65 0 0 195 0 195 65 0 c51 0 65 -3 65 -15 0 -12 6 -11 33 5 41
25 103 26 144 1z m613 -6 c18 -16 20 -16 20 -2 0 14 11 17 65 17 l65 0 0 -195
0 -195 -65 0 c-54 0 -65 3 -65 17 0 14 -2 14 -20 -2 -32 -29 -117 -32 -167 -6
-131 66 -139 283 -14 363 40 26 53 29 103 26 37 -3 64 -11 78 -23z m-1190
-180 l0 -195 -65 0 -65 0 0 195 0 195 65 0 65 0 0 -195z m-65 -370 c14 -13 25
-36 25 -50 0 -33 -41 -75 -73 -75 -69 0 -104 88 -51 129 35 28 69 26 99 -4z
m-274 -17 c20 -9 45 -28 57 -43 40 -50 41 -142 3 -181 -18 -18 -17 -20 10 -51
57 -66 47 -160 -24 -217 l-39 -31 -159 -3 -159 -4 0 269 c0 149 3 273 8 277
13 14 264 0 303 -16z m634 -147 c80 -36 132 -123 122 -207 -12 -106 -84 -175
-191 -182 -55 -4 -71 0 -113 22 -57 32 -99 90 -108 151 -19 121 81 235 205
235 25 0 63 -9 85 -19z m438 7 c38 -11 107 -66 107 -84 0 -5 -23 -22 -50 -37
-47 -26 -52 -27 -72 -13 -77 54 -169 -41 -110 -114 22 -27 84 -30 111 -6 17
15 21 14 64 -10 60 -33 64 -40 36 -71 -72 -78 -218 -83 -298 -10 -35 33 -61
96 -61 152 0 145 129 236 273 193z m380 -7 c29 -15 37 -16 37 -5 0 11 16 14
65 14 l65 0 0 -195 0 -195 -65 0 c-54 0 -65 3 -65 17 0 14 -2 14 -21 -3 -16
-15 -36 -19 -88 -19 -58 0 -73 4 -103 27 -116 88 -101 295 26 358 51 25 101
25 149 1z m487 -56 l0 -75 -30 0 c-19 0 -40 -9 -55 -25 -23 -22 -25 -31 -25
-125 l0 -100 -65 0 -65 0 0 195 0 195 65 0 c64 0 65 0 65 -27 l0 -26 23 21
c20 19 60 40 80 41 4 1 7 -33 7 -74z m320 53 c24 -13 57 -40 74 -61 25 -31 31
-49 34 -102 l4 -65 -136 0 c-82 0 -136 -4 -136 -10 0 -5 11 -17 25 -26 24 -16
72 -16 120 0 14 5 34 -2 65 -25 l44 -32 -30 -23 c-42 -35 -88 -47 -157 -42
-83 5 -133 31 -167 85 -114 179 73 396 260 301z m-1970 -183 l0 -195 -65 0
-65 0 0 195 0 195 65 0 65 0 0 -195z m2250 -844 c0 -564 -6 -658 -56 -856 -52
-204 -226 -599 -358 -813 -228 -368 -518 -629 -810 -728 -547 -186 -1098 117
-1493 821 -144 258 -295 667 -337 915 -22 131 -26 209 -40 728 l-11 452 1553
0 1552 0 0 -519z"/>
<path d="M2045 4155 c-75 -74 25 -190 109 -124 57 45 19 149 -54 149 -19 0
-40 -9 -55 -25z"/>
<path d="M1128 3433 c-37 -42 -30 -98 16 -129 31 -20 67 -13 96 18 45 48 8
128 -59 128 -24 0 -44 -7 -53 -17z"/>
<path d="M1985 3435 c-52 -51 -16 -145 55 -145 44 0 80 39 80 85 0 46 -36 85
-80 85 -19 0 -40 -9 -55 -25z"/>
<path d="M1850 2643 c-90 -8 -212 -34 -307 -67 -54 -19 -117 -36 -141 -39
-104 -13 -202 -135 -202 -254 0 -23 -8 -38 -32 -58 -28 -24 -39 -27 -83 -22
-27 2 -58 8 -67 12 -13 5 -18 3 -18 -9 0 -11 -10 -16 -32 -17 l-33 -1 35 -13
c55 -21 149 -19 189 6 18 11 35 28 38 38 4 16 19 19 116 23 84 3 123 10 157
25 56 25 100 68 107 106 8 38 73 80 166 109 89 27 240 22 332 -11 191 -68 349
-226 391 -391 57 -222 -97 -426 -414 -550 -92 -37 -278 -88 -374 -105 l-38 -6
0 -59 0 -59 58 6 c517 46 865 252 958 568 23 79 23 211 0 290 -68 231 -270
408 -526 460 -74 15 -213 24 -280 18z"/>
<path d="M775 2058 c36 -217 228 -388 508 -454 56 -13 119 -26 140 -29 l37 -6
0 -229 c0 -261 -10 -238 96 -218 l64 11 0 217 0 217 88 12 c316 44 563 225
611 449 6 29 11 57 11 62 0 6 -294 10 -781 10 l-781 0 7 -42z"/>
<path d="M1360 1356 c-95 -33 -143 -60 -178 -101 -56 -63 -39 -139 45 -196
124 -86 325 -101 467 -36 l51 24 -155 -1 c-170 -1 -245 13 -296 58 -61 51 -15
133 95 173 51 18 51 18 51 60 0 24 -3 43 -7 42 -5 0 -37 -10 -73 -23z"/>
<path d="M1528 917 l-57 -10 -3 -56 -3 -55 -80 -11 c-157 -23 -266 -75 -288
-138 -7 -18 10 -18 461 -11 257 3 469 8 471 10 8 7 -32 56 -62 75 -49 30 -150
58 -253 71 l-94 11 0 64 c0 71 6 67 -92 50z"/>
<path d="M4420 3217 c-34 -17 -70 -74 -70 -112 0 -38 36 -95 70 -112 101 -51
218 51 178 155 -26 68 -113 102 -178 69z"/>
<path d="M4700 2760 l0 -470 110 0 110 0 0 470 0 470 -110 0 -110 0 0 -470z"/>
<path d="M3530 2740 l0 -450 115 0 115 0 0 170 0 170 125 0 125 0 0 -170 0
-170 115 0 115 0 0 450 0 450 -115 0 -115 0 0 -165 0 -165 -125 0 -125 0 0
165 0 165 -115 0 -115 0 0 -450z"/>
<path d="M5330 2934 c-19 -8 -42 -22 -52 -31 -17 -15 -18 -15 -18 5 0 21 -4
22 -110 22 l-110 0 0 -320 0 -320 109 0 110 0 3 206 c3 202 3 206 27 225 13
10 37 19 55 19 70 0 76 -21 76 -254 l0 -196 110 0 110 0 0 190 c0 235 9 260
89 260 15 0 36 -6 47 -14 18 -13 19 -30 22 -225 l3 -211 110 0 110 0 -3 248
c-3 231 -4 250 -25 287 -45 84 -114 125 -211 125 -69 0 -114 -13 -159 -47
l-32 -24 -22 22 c-48 48 -166 65 -239 33z"/>
<path d="M6304 2938 c-59 -19 -126 -80 -163 -148 -35 -64 -36 -67 -36 -180 0
-102 3 -121 25 -165 30 -61 91 -124 145 -150 80 -38 210 -30 278 17 27 19 27
19 27 -1 0 -20 5 -21 110 -21 l110 0 0 320 0 320 -110 0 c-100 0 -110 -2 -110
-18 0 -17 -5 -16 -56 10 -47 23 -69 28 -123 27 -36 -1 -80 -6 -97 -11z m228
-225 c35 -32 51 -73 45 -122 -11 -94 -110 -141 -200 -94 -52 26 -73 122 -42
183 34 66 141 84 197 33z"/>
<path d="M4370 2610 l0 -320 110 0 110 0 0 320 0 320 -110 0 -110 0 0 -320z"/>
</g>
</svg>
